<svg width="40" height="40" viewBox="0 0 40 40" fill="none" xmlns="http://www.w3.org/2000/svg">
<g clip-path="url(#clip0_252_378)">
<path d="M20 40C31.0457 40 40 31.0457 40 20C40 8.9543 31.0457 0 20 0C8.9543 0 0 8.9543 0 20C0 31.0457 8.9543 40 20 40Z" fill="#EAE7EE"/>
<mask id="mask0_252_378" style="mask-type:alpha" maskUnits="userSpaceOnUse" x="8" y="8" width="24" height="24">
<mask id="mask1_252_378" style="mask-type:alpha" maskUnits="userSpaceOnUse" x="8" y="8" width="24" height="24">
<path d="M31.5385 8.46155H8.46155V31.5385H31.5385V8.46155Z" fill="#D9D9D9"/>
</mask>
<g mask="url(#mask1_252_378)">
<path d="M20 45.3846C26.3725 45.3846 31.5385 40.2187 31.5385 33.8462C31.5385 27.4737 26.3725 22.3077 20 22.3077C13.6275 22.3077 8.46155 27.4737 8.46155 33.8462C8.46155 40.2187 13.6275 45.3846 20 45.3846Z" fill="#98959E"/>
<path d="M20.0001 20C23.1863 20 25.7693 17.417 25.7693 14.2308C25.7693 11.0445 23.1863 8.46155 20.0001 8.46155C16.8138 8.46155 14.2308 11.0445 14.2308 14.2308C14.2308 17.417 16.8138 20 20.0001 20Z" fill="#98959E"/>
</g>
</mask>
<g mask="url(#mask0_252_378)">
<path d="M20 38C29.9411 38 38 29.9411 38 20C38 10.0589 29.9411 2 20 2C10.0589 2 2 10.0589 2 20C2 29.9411 10.0589 38 20 38Z" fill="#98959E"/>
</g>
</g>
<defs>
<clipPath id="clip0_252_378">
<rect width="40" height="40" fill="white"/>
</clipPath>
</defs>
</svg>
