<svg width="60" height="51" viewBox="0 0 60 51" fill="none" xmlns="http://www.w3.org/2000/svg">
<path d="M27.5357 1.095C27.8685 1.4267 28.1326 1.82084 28.3128 2.25482C28.493 2.68881 28.5858 3.1541 28.5858 3.62401C28.5858 4.09392 28.493 4.5592 28.3128 4.99318C28.1326 5.42717 27.8685 5.82131 27.5357 6.15301L12.2158 21.4728L55.9528 21.4728C56.8997 21.4728 57.8078 21.849 58.4774 22.5186C59.147 23.1881 59.5231 24.0963 59.5231 25.0432C59.5231 25.9901 59.147 26.8982 58.4774 27.5678C57.8078 28.2374 56.8997 28.6136 55.9528 28.6136L12.2158 28.6136L27.5357 43.9393C28.2064 44.6101 28.5832 45.5198 28.5832 46.4683C28.5832 47.4169 28.2064 48.3266 27.5357 48.9973C26.8649 49.6681 25.9552 50.0449 25.0067 50.0449C24.0581 50.0449 23.1484 49.6681 22.4777 48.9973L1.05549 27.5752C0.72264 27.2435 0.45854 26.8493 0.278336 26.4153C0.0981327 25.9814 0.00537109 25.5161 0.00537109 25.0462C0.00537109 24.5763 0.0981327 24.111 0.278336 23.677C0.45854 23.243 0.72264 22.8489 1.05549 22.5172L22.4777 1.095C22.8094 0.762152 23.2035 0.49805 23.6375 0.317847C24.0715 0.137644 24.5368 0.0448782 25.0067 0.0448782C25.4766 0.0448782 25.9419 0.137644 26.3759 0.317847C26.8098 0.49805 27.204 0.762152 27.5357 1.095Z" fill="#99969F"/>
</svg>
