<svg width="15" height="16" viewBox="0 0 15 16" fill="none" xmlns="http://www.w3.org/2000/svg">
<path fill-rule="evenodd" clip-rule="evenodd" d="M8.90448 0.1197C8.61238 -3.5204e-08 8.24134 0 7.50004 0C6.75875 0 6.38771 -3.5204e-08 6.09561 0.1197C5.70677 0.278941 5.39724 0.585715 5.23511 0.972562C5.1609 1.14817 5.13248 1.35371 5.12064 1.65218C5.11537 1.86843 5.0549 2.07976 4.94494 2.2662C4.83498 2.45265 4.67917 2.60803 4.49223 2.71766C4.30177 2.82327 4.08767 2.87921 3.86977 2.88032C3.65187 2.88142 3.43721 2.82764 3.24569 2.72396C2.97885 2.58379 2.78544 2.50661 2.59439 2.48141C2.17642 2.42667 1.75368 2.53874 1.41811 2.79326C1.16706 2.98384 0.981538 3.30199 0.611285 3.9375C0.240242 4.57301 0.0555107 4.89037 0.0136698 5.20144C-0.0415919 5.61566 0.0720893 6.03461 0.329451 6.36615C0.44629 6.51735 0.611285 6.64414 0.866278 6.80321C1.24285 7.0371 1.48442 7.43558 1.48442 7.875C1.48442 8.31443 1.24285 8.7129 0.867068 8.946C0.611285 9.10586 0.446289 9.23265 0.328661 9.38385C0.201625 9.5476 0.10838 9.73485 0.0543142 9.93476C0.000248592 10.1347 -0.0135657 10.3433 0.0136698 10.5486C0.0555107 10.8588 0.240242 11.177 0.611285 11.8125C0.982327 12.448 1.16706 12.7654 1.41811 12.9567C1.75283 13.2111 2.17598 13.3229 2.59439 13.2686C2.78544 13.2434 2.97885 13.1662 3.24569 13.026C3.43731 12.9222 3.65211 12.8684 3.87016 12.8695C4.08822 12.8706 4.30246 12.9266 4.49302 13.0323C4.87669 13.2528 5.10406 13.6584 5.12064 14.0978C5.13248 14.3971 5.1609 14.6018 5.23511 14.7774C5.39615 15.1633 5.70562 15.4704 6.09561 15.6303C6.38771 15.75 6.75875 15.75 7.50004 15.75C8.24134 15.75 8.61238 15.75 8.90448 15.6303C9.29332 15.4711 9.60284 15.1643 9.76498 14.7774C9.83919 14.6018 9.86761 14.3971 9.87945 14.0978C9.89524 13.6584 10.1234 13.2521 10.5079 13.0323C10.6983 12.9267 10.9124 12.8708 11.1303 12.8697C11.3482 12.8686 11.5629 12.9224 11.7544 13.026C12.0212 13.1662 12.2147 13.2434 12.4057 13.2686C12.8241 13.3237 13.2473 13.2111 13.582 12.9567C13.833 12.7662 14.0185 12.448 14.3888 11.8125C14.7598 11.177 14.9446 10.8596 14.9864 10.5486C15.0135 10.3432 14.9996 10.1346 14.9454 9.93468C14.8912 9.73476 14.7978 9.54755 14.6706 9.38385C14.5538 9.23265 14.3888 9.10586 14.1338 8.94679C13.7572 8.7129 13.5157 8.31443 13.5157 7.875C13.5157 7.43558 13.7572 7.0371 14.133 6.804C14.3888 6.64414 14.5538 6.51735 14.6714 6.36615C14.7985 6.2024 14.8917 6.01515 14.9458 5.81524C14.9998 5.61533 15.0137 5.40671 14.9864 5.20144C14.9446 4.89116 14.7598 4.57301 14.3888 3.9375C14.0178 3.30199 13.833 2.98463 13.582 2.79326C13.2464 2.53874 12.8237 2.42667 12.4057 2.48141C12.2147 2.50661 12.0212 2.58379 11.7544 2.72396C11.5628 2.82778 11.348 2.88163 11.1299 2.88053C10.9119 2.87943 10.6976 2.82341 10.5071 2.71766C10.3203 2.60793 10.1646 2.45251 10.0548 2.26607C9.94499 2.07964 9.88464 1.86835 9.87945 1.65218C9.86761 1.35293 9.83919 1.14817 9.76498 0.972562C9.68474 0.780992 9.56744 0.60707 9.41979 0.460733C9.27214 0.314396 9.09704 0.198511 8.90448 0.1197ZM7.50004 10.2375C8.81843 10.2375 9.88656 9.17989 9.88656 7.875C9.88656 6.57011 8.81764 5.5125 7.50004 5.5125C6.18166 5.5125 5.11353 6.57011 5.11353 7.875C5.11353 9.17989 6.18245 10.2375 7.50004 10.2375Z" fill="#5C5960"/>
</svg>
