<svg width="21" height="21" viewBox="0 0 21 21" fill="none" xmlns="http://www.w3.org/2000/svg">
<path d="M11.3174 16.3135C11.4266 16.4223 11.5133 16.5517 11.5724 16.6942C11.6316 16.8366 11.662 16.9893 11.662 17.1436C11.662 17.2978 11.6316 17.4505 11.5724 17.5929C11.5133 17.7354 11.4266 17.8648 11.3174 17.9736L10.7373 18.5537C9.63809 19.6529 8.14726 20.2704 6.59276 20.2704C5.03826 20.2704 3.54743 19.6529 2.44823 18.5537C1.34903 17.4545 0.731506 15.9637 0.731506 14.4092C0.731506 12.8547 1.34903 11.3638 2.44823 10.2646L4.8037 7.91015C5.85983 6.8514 7.28082 6.23654 8.77559 6.19152C10.2704 6.14649 11.7258 6.67471 12.8437 7.66797C12.9592 7.77056 13.0532 7.89488 13.1206 8.03384C13.188 8.17279 13.2273 8.32366 13.2364 8.47782C13.2455 8.63198 13.2241 8.78641 13.1735 8.93231C13.1228 9.0782 13.044 9.2127 12.9414 9.32812C12.8388 9.44354 12.7145 9.53762 12.5755 9.605C12.4366 9.67237 12.2857 9.71171 12.1315 9.72078C11.9774 9.72985 11.8229 9.70846 11.677 9.65785C11.5312 9.60723 11.3967 9.52837 11.2812 9.42578C10.6108 8.83039 9.7383 8.51365 8.84209 8.54033C7.94588 8.56702 7.09373 8.93512 6.45995 9.56933L4.10643 11.9209C3.44702 12.5803 3.07656 13.4747 3.07656 14.4072C3.07656 15.3398 3.44702 16.2341 4.10643 16.8936C4.76585 17.553 5.6602 17.9234 6.59276 17.9234C7.52531 17.9234 8.41967 17.553 9.07909 16.8936L9.65916 16.3135C9.768 16.2045 9.89724 16.1181 10.0395 16.0591C10.1818 16.0001 10.3343 15.9698 10.4883 15.9698C10.6423 15.9698 10.7948 16.0001 10.937 16.0591C11.0793 16.1181 11.2085 16.2045 11.3174 16.3135ZM18.5517 2.44629C17.4516 1.34878 15.9612 0.732422 14.4072 0.732422C12.8533 0.732422 11.3628 1.34878 10.2627 2.44629L9.6826 3.02636C9.46245 3.24651 9.33877 3.5451 9.33877 3.85644C9.33877 4.16778 9.46245 4.46637 9.6826 4.68652C9.90275 4.90667 10.2013 5.03035 10.5127 5.03035C10.824 5.03035 11.1226 4.90667 11.3428 4.68652L11.9228 4.10644C12.5823 3.44703 13.4766 3.07657 14.4092 3.07657C15.3417 3.07657 16.2361 3.44703 16.8955 4.10644C17.5549 4.76586 17.9254 5.66022 17.9254 6.59277C17.9254 7.52532 17.5549 8.41968 16.8955 9.0791L14.541 11.4346C13.9067 12.0685 13.054 12.4361 12.1576 12.462C11.2612 12.488 10.3887 12.1704 9.71873 11.5742C9.60332 11.4716 9.46882 11.3928 9.32292 11.3421C9.17703 11.2915 9.02259 11.2701 8.86843 11.2792C8.71427 11.2883 8.56341 11.3276 8.42445 11.395C8.2855 11.4624 8.16117 11.5565 8.05858 11.6719C7.95598 11.7873 7.87713 11.9218 7.82651 12.0677C7.77589 12.2136 7.75451 12.368 7.76358 12.5222C7.77265 12.6763 7.81199 12.8272 7.87936 12.9662C7.94673 13.1051 8.04082 13.2294 8.15623 13.332C9.2734 14.3251 10.7278 14.8536 12.2219 14.8095C13.716 14.7654 15.1367 14.1519 16.1933 13.0947L18.5488 10.7402C19.6476 9.64041 20.2651 8.1495 20.2656 6.59484C20.2662 5.04018 19.6498 3.54884 18.5517 2.44824V2.44629Z" fill="#5C5960"/>
</svg>
